<?xml version="1.0" encoding="utf-8"?>
<!-- Generator: Adobe Illustrator 16.0.3, SVG Export Plug-In . SVG Version: 6.00 Build 0)  -->
<!DOCTYPE svg PUBLIC "-//W3C//DTD SVG 1.1//EN" "http://www.w3.org/Graphics/SVG/1.1/DTD/svg11.dtd">
<svg version="1.1" xmlns="http://www.w3.org/2000/svg" xmlns:xlink="http://www.w3.org/1999/xlink" x="0px" y="0px" width="20px"
	 height="20px" viewBox="0 0 20 20" enable-background="new 0 0 20 20" xml:space="preserve">
<g id="Calque_1">
</g>
<g id="Calque_2">
</g>
<g id="Calque_3">
</g>
<g id="Calque_4">
</g>
<g id="Calque_5">
</g>
<g id="Calque_6">
	<path d="M9.656,18.157c-4.687,0-8.5-3.813-8.5-8.5s3.813-8.5,8.5-8.5s8.5,3.813,8.5,8.5c0,1.662-0.479,3.271-1.387,4.655
		l-0.836-0.548c0.8-1.221,1.223-2.641,1.223-4.107c0-4.136-3.364-7.5-7.5-7.5s-7.5,3.364-7.5,7.5s3.364,7.5,7.5,7.5
		c1.21,0,2.364-0.279,3.431-0.829l0.459,0.889C12.335,17.84,11.026,18.157,9.656,18.157z"/>
	<path d="M16.438,18.843c-0.077,0-0.154-0.018-0.225-0.053l-9.996-5.035c-0.098-0.049-0.177-0.129-0.225-0.227L3.738,8.93
		C3.648,8.746,3.68,8.526,3.816,8.375l3.623-4.018c0.143-0.158,0.37-0.209,0.564-0.126l4.414,1.849
		c0.104,0.043,0.19,0.121,0.245,0.22l6.119,11.116c0.07,0.128,0.081,0.281,0.029,0.418c-0.052,0.137-0.161,0.244-0.299,0.293
		l-1.906,0.687C16.552,18.833,16.495,18.843,16.438,18.843z M6.816,12.937l9.654,4.863l1.152-0.415l-5.752-10.45L7.944,5.29
		L4.785,8.793L6.816,12.937z"/>
	<polyline points="9.656,10.479 8.84,12.767 7.59,11.287 	"/>
	<polygon points="12.906,7.779 11.99,9.657 13.939,9.657 	"/>
	<polygon points="11.781,11.041 11.33,12.969 13.203,12.357 	"/>
	<polygon points="5.615,11.623 6.906,9.875 4.825,10.01 	"/>
	<polygon points="8.357,6.384 8,8.929 10.118,8.098 	"/>
</g>
<g id="Calque_7">
</g>
<g id="Calque_8">
</g>
<g id="Calque_9">
</g>
<g id="Calque_10">
</g>
<g id="Calque_11">
</g>
<g id="Calque_12">
</g>
<g id="Calque_13">
</g>
<g id="Calque_17">
</g>
<g id="Calque_18">
</g>
<g id="Calque_19">
</g>
<g id="Calque_20">
</g>
<g id="Calque_21">
</g>
<g id="Calque_22">
</g>
<g id="Calque_14">
</g>
<g id="Calque_15">
</g>
<g id="Calque_16">
</g>
</svg>
