<?xml version="1.0" encoding="utf-8"?>
<!-- Generator: Adobe Illustrator 16.0.3, SVG Export Plug-In . SVG Version: 6.00 Build 0)  -->
<!DOCTYPE svg PUBLIC "-//W3C//DTD SVG 1.1//EN" "http://www.w3.org/Graphics/SVG/1.1/DTD/svg11.dtd">
<svg version="1.1" xmlns="http://www.w3.org/2000/svg" xmlns:xlink="http://www.w3.org/1999/xlink" x="0px" y="0px" width="20px"
	 height="20px" viewBox="0 0 20 20" enable-background="new 0 0 20 20" xml:space="preserve">
<g id="Calque_1">
	<path d="M10,20C4.486,20,0,15.514,0,10S4.486,0,10,0s10,4.486,10,10S15.514,20,10,20z M10,1c-4.962,0-9,4.038-9,9s4.038,9,9,9
		s9-4.038,9-9S14.962,1,10,1z"/>
	<path d="M10,16c-3.309,0-6-2.691-6-6s2.691-6,6-6s6,2.691,6,6S13.309,16,10,16z M10,5c-2.757,0-5,2.243-5,5s2.243,5,5,5
		s5-2.243,5-5S12.757,5,10,5z"/>
	<path d="M11.124,15.385c-1.144,0.221,0.079-1.213,0.877-1.578c0.496-0.227,0.899-1.579,0.749-2.213s-2.533-0.173-2.672-1.875
		s-0.25-2.8,1.031-2.8c0.855,0,1.119,0.843,1.406,0.862s0.555-0.299,1.031-0.297s1.861,1.024,1.885,2.343
		C15.5,13.719,12.547,15.109,11.124,15.385z"/>
	<path d="M4.502,10.11C4.514,9.555,5.067,9.69,5.505,9.487S5.719,8.516,6.43,8.283c0.875-0.286,0.973,0.783,1.197,0.904
		s1.102-0.23,1.42,0.078s-0.107,2.253-0.469,2.563s-0.825,0.031-1.047,0.385c-0.297,0.475,0.093,1.082-0.469,1.252
		s-1.129,0.108-1.54-0.271C4.906,12.625,4.475,11.375,4.502,10.11z"/>
	<path d="M6.104,6.119c-0.328,0.36,0.727,1.053,1.587,0.8C8.397,6.711,8.633,6.534,8.944,6.13c0.462-0.599,0.423-1.566,0.205-1.564
		C7.926,4.576,6.891,5.254,6.104,6.119z"/>
</g>
<g id="Calque_2">
</g>
<g id="Calque_3">
</g>
<g id="Calque_4">
</g>
<g id="Calque_5">
</g>
<g id="Calque_6">
</g>
<g id="Calque_7">
</g>
<g id="Calque_8">
</g>
<g id="Calque_9">
</g>
<g id="Calque_10">
</g>
<g id="Calque_11">
</g>
<g id="Calque_12">
</g>
<g id="Calque_13">
</g>
<g id="Calque_17">
</g>
<g id="Calque_18">
</g>
<g id="Calque_19">
</g>
<g id="Calque_20">
</g>
<g id="Calque_21">
</g>
<g id="Calque_22">
</g>
<g id="Calque_14">
</g>
<g id="Calque_15">
</g>
<g id="Calque_16">
</g>
</svg>
