<?xml version="1.0" encoding="utf-8"?>
<!-- Generator: Adobe Illustrator 16.0.3, SVG Export Plug-In . SVG Version: 6.00 Build 0)  -->
<!DOCTYPE svg PUBLIC "-//W3C//DTD SVG 1.1//EN" "http://www.w3.org/Graphics/SVG/1.1/DTD/svg11.dtd">
<svg version="1.1" xmlns="http://www.w3.org/2000/svg" xmlns:xlink="http://www.w3.org/1999/xlink" x="0px" y="0px" width="20px"
	 height="20px" viewBox="0 0 20 20" enable-background="new 0 0 20 20" xml:space="preserve">
<g id="Calque_1">
</g>
<g id="Calque_2">
</g>
<g id="Calque_3">
</g>
<g id="Calque_4">
</g>
<g id="Calque_5">
	<path d="M10,20C4.486,20,0,15.514,0,10S4.486,0,10,0s10,4.486,10,10S15.514,20,10,20z M10,1c-4.962,0-9,4.038-9,9s4.038,9,9,9
		s9-4.038,9-9S14.962,1,10,1z"/>
	<g id="Lune_3_">
		<path d="M12.265,13c-0.326,0-0.864-0.184-1.275-0.689c-0.328-0.401-0.674-1.074-0.461-2.105c0.307-1.482,1.243-1.691,1.774-1.691
			c0.702,0,1.346,0.363,1.561,0.604c0.092,0.104,0.384,0.447,0.631,0.829C14.466,7.482,12.472,5.5,10,5.5c-2.49,0-4.5,2.01-4.5,4.5
			c0,0.16,0.01,0.32,0.02,0.48C5.65,10.21,5.87,10,6.27,10c0.45,0,0.75,0.22,0.961,0.5c0.199,0.28,0.31,0.62,0.39,0.84
			c0.28,0.88-0.14,1.19-0.41,1.31c-0.19,0.08-0.45,0.16-0.71,0.18c0.83,1.02,2.09,1.67,3.5,1.67c1.501,0,2.817-0.738,3.635-1.863
			C13.11,12.914,12.758,13,12.288,13H12.265z M11.67,6.703c0.275,0,0.999,0.344,0.939,0.898c-0.029,0.274-0.375,0.555-0.918,0.555
			c-0.276,0-0.738-0.25-0.808-0.805C10.81,6.755,11.394,6.703,11.67,6.703z M8.824,13.344c-0.272-0.039-0.87-0.417-0.733-0.958
			c0.068-0.268,0.411-0.756,1.05-0.667c0.273,0.038,0.728,0.488,0.719,1.047C9.849,13.367,9.098,13.383,8.824,13.344z M10.21,8.96
			c-0.52,0.86-1.13,1.23-2.05,1.23c-0.101,0-0.2,0-0.311-0.01C7.4,10.15,7.03,9.92,6.79,9.56C6.58,9.22,6.51,8.8,6.62,8.48
			c0.439-1.2,1.24-1.84,2.31-1.84l0.11,0.01c0.41,0.01,0.79,0.29,1.04,0.76C10.32,7.86,10.47,8.53,10.21,8.96z"/>
		<path d="M8.594,7.406c-0.688,0-1.407,1.078-1.36,1.484s0.501,0.563,0.985,0.547s1.359-0.453,1.375-1.109S9.281,7.406,8.594,7.406z
			"/>
		<path d="M6.5,10.656c-0.318-0.188-0.652,0.109-0.869,0.376c0.11,0.469,0.297,0.906,0.541,1.306
			c0.288-0.066,0.736-0.187,0.841-0.322C7.169,11.813,7.031,10.969,6.5,10.656z"/>
		<path d="M12.234,9.328c-0.738,0.17-0.971,0.847-1.016,1.269s0.288,1.345,0.672,1.59c0.67,0.429,1.886-0.186,2.22-0.37
			c0.139-0.313,0.241-0.643,0.306-0.989C14.137,10.446,13.104,9.127,12.234,9.328z"/>
	</g>
</g>
<g id="Calque_6">
</g>
<g id="Calque_7">
</g>
<g id="Calque_8">
</g>
<g id="Calque_9">
</g>
<g id="Calque_10">
</g>
<g id="Calque_11">
</g>
<g id="Calque_12">
</g>
<g id="Calque_13">
</g>
<g id="Calque_17">
</g>
<g id="Calque_18">
</g>
<g id="Calque_19">
</g>
<g id="Calque_20">
</g>
<g id="Calque_21">
</g>
<g id="Calque_22">
</g>
<g id="Calque_14">
</g>
<g id="Calque_15">
</g>
<g id="Calque_16">
</g>
</svg>
