<?xml version="1.0" encoding="utf-8"?>
<!-- Generator: Adobe Illustrator 16.0.3, SVG Export Plug-In . SVG Version: 6.00 Build 0)  -->
<!DOCTYPE svg PUBLIC "-//W3C//DTD SVG 1.1//EN" "http://www.w3.org/Graphics/SVG/1.1/DTD/svg11.dtd">
<svg version="1.1" xmlns="http://www.w3.org/2000/svg" xmlns:xlink="http://www.w3.org/1999/xlink" x="0px" y="0px" width="20px"
	 height="20px" viewBox="0 0 20 20" enable-background="new 0 0 20 20" xml:space="preserve">
<g id="Calque_1">
</g>
<g id="Calque_2">
</g>
<g id="Calque_3">
</g>
<g id="Calque_4">
</g>
<g id="Calque_5">
</g>
<g id="Calque_6">
</g>
<g id="Calque_7">
</g>
<g id="Calque_8">
</g>
<g id="Calque_9">
</g>
<g id="Calque_10">
</g>
<g id="Calque_11">
</g>
<g id="Calque_12">
</g>
<g id="Calque_13">
</g>
<g id="Calque_17">
</g>
<g id="Calque_18">
</g>
<g id="Calque_23">
</g>
<g id="Calque_20">
</g>
<g id="Calque_21">
</g>
<g id="Calque_22">
</g>
<g id="Calque_24">
</g>
<g id="Calque_25">
</g>
<g id="Calque_26">
</g>
<g id="Calque_27">
</g>
<g id="Calque_28">
</g>
<g id="Calque_29">
</g>
<g id="Calque_30">
</g>
<g id="Calque_31">
</g>
<g id="Calque_32">
	<path d="M14,9.906c-0.437,0-0.837,0.145-1.166,0.381l-1.802-1.496c0.333-0.482,0.53-1.066,0.53-1.697c0-1.654-1.346-3-3-3
		s-3,1.346-3,3c0,1.094,0.595,2.043,1.471,2.566l-0.835,2.266C6.132,11.92,6.067,11.906,6,11.906c-1.104,0-2,0.896-2,2s0.896,2,2,2
		s2-0.896,2-2c0-0.681-0.342-1.28-0.862-1.642l0.823-2.231c0.194,0.039,0.396,0.061,0.602,0.061c0.662,0,1.27-0.223,1.766-0.587
		l1.867,1.551C12.073,11.316,12,11.602,12,11.906c0,1.104,0.896,2,2,2s2-0.896,2-2S15.104,9.906,14,9.906z M8.563,9.094
		c-1.103,0-2-0.896-2-2s0.897-2,2-2s2,0.896,2,2S9.665,9.094,8.563,9.094z"/>
</g>
<g id="Calque_33">
</g>
<g id="Calque_34">
</g>
<g id="Calque_14">
</g>
<g id="Calque_15">
</g>
<g id="Calque_16">
</g>
</svg>
