<?xml version="1.0" encoding="utf-8"?>
<!-- Generator: Adobe Illustrator 16.0.3, SVG Export Plug-In . SVG Version: 6.00 Build 0)  -->
<!DOCTYPE svg PUBLIC "-//W3C//DTD SVG 1.1//EN" "http://www.w3.org/Graphics/SVG/1.1/DTD/svg11.dtd">
<svg version="1.1" xmlns="http://www.w3.org/2000/svg" xmlns:xlink="http://www.w3.org/1999/xlink" x="0px" y="0px" width="32px"
	 height="32px" viewBox="0 0 32 32" enable-background="new 0 0 32 32" xml:space="preserve">
<g id="cadre_x5F_open">
</g>
<g id="cadre_x5F_dome">
</g>
<g id="cadre_x5F_orbital">
</g>
<g id="infra_x5F_open">
</g>
<g id="infra_x5F_dome">
</g>
<g id="mine_x5F_dome">
</g>
<g id="mine_x5F_orbital">
</g>
<g id="hab_x5F_open">
</g>
<g id="hab_x5F_dome">
</g>
<g id="hab_x5F_open_x5F_poor">
</g>
<g id="hab_x5F_open_x5F_rich">
</g>
<g id="factory_x5F_open">
</g>
<g id="factory_x5F_orbital">
</g>
<g id="hight_x5F_factory_x5F_dome">
</g>
<g id="lift_x5F_open">
</g>
<g id="lift_x5F_dome">
</g>
<g id="university_x5F_open">
</g>
<g id="research_x5F_open">
</g>
<g id="research_x5F_dome">
</g>
<g id="research_x5F_orbital">
</g>
<g id="ideo_x5F_open">
</g>
<g id="ideo_x5F_dome">
</g>
<g id="monument_x5F_open">
</g>
<g id="monument_x5F_dome">
</g>
<g id="ideo_x5F_credit_x5F_open">
</g>
<g id="market_x5F_open">
</g>
<g id="market_x5F_dome">
</g>
<g id="finance_x5F_open">
</g>
<g id="finance_x5F_orbital">
</g>
<g id="spatioport_x5F_open">
</g>
<g id="spatioport_x5F_dome">
</g>
<g id="spatioport_x5F_orbital">
</g>
<g id="defense_x5F_global_x5F_dome">
</g>
<g id="defense_x5F_local_x5F_open">
</g>
<g id="defense_x5F_local_x5F_dome">
</g>
<g id="defense_x5F_local_x5F_orbital">
</g>
<g id="happy_x5F_pot_x5F_open">
</g>
<g id="happy_x5F_pot_x5F_dome">
</g>
<g id="happy_x5F_pot_x5F_orbital">
</g>
<g id="happy_x5F_open">
</g>
<g id="happy_x5F_orbital">
</g>
<g id="shipyard_x5F_1_x5F_orbital">
</g>
<g id="shipyard_x5F_2_x5F_orbital">
</g>
<g id="shipyard_x5F_3_x5F_orbital">
</g>
<g id="shipyard_x5F_4_x5F_orbital">
</g>
<g id="military_x5F_school_x5F_dome">
</g>
<g id="radar_x5F_orbital">
</g>
<g id="counterintelligence_x5F_open">
	<g>
		<path d="M19.114,11.472l0.715-0.715c-2.274-1.662-5.384-1.662-7.658,0l0.715,0.715C14.755,10.186,17.245,10.186,19.114,11.472z"/>
		<path d="M11.472,12.886l-0.715-0.715c-1.662,2.274-1.662,5.385,0,7.658l0.714-0.715C10.186,17.245,10.186,14.755,11.472,12.886z"
			/>
		<path d="M12.885,20.528l-0.714,0.715c2.273,1.662,5.384,1.662,7.658,0l-0.714-0.715C17.245,21.815,14.755,21.815,12.885,20.528z"
			/>
		<path d="M20.529,19.114l0.714,0.715c1.662-2.273,1.661-5.385,0-7.658l-0.715,0.715C21.814,14.755,21.814,17.245,20.529,19.114z"/>
		<path d="M10.043,11.456l-0.715-0.714c-2.425,3.073-2.426,7.442,0,10.516l0.714-0.714C8,17.869,8,14.132,10.043,11.456z"/>
		<path d="M21.957,20.543l0.715,0.715c2.426-3.073,2.426-7.442,0-10.516l-0.715,0.714C24,14.131,24,17.868,21.957,20.543z"/>
		<path d="M20.543,10.042l0.715-0.714c-3.074-2.426-7.442-2.425-10.516,0l0.715,0.714C14.132,8,17.869,8,20.543,10.042z"/>
		<path d="M11.456,21.958l-0.714,0.714c3.073,2.426,7.443,2.425,10.516,0l-0.715-0.715C17.869,24,14.131,24,11.456,21.958z"/>
		<path d="M23.387,21.973l0.709,0.709c3.195-3.865,3.195-9.498,0-13.363l-0.709,0.709C26.197,13.498,26.197,18.502,23.387,21.973z"
			/>
		<path d="M8.613,10.027L7.904,9.318c-3.195,3.865-3.194,9.498,0,13.363l0.709-0.709C5.803,18.502,5.803,13.498,8.613,10.027z"/>
		<path d="M10.027,23.387l-0.709,0.709c3.865,3.194,9.498,3.195,13.363,0l-0.709-0.709C18.502,26.197,13.498,26.197,10.027,23.387z"
			/>
		<path d="M21.973,8.613l0.709-0.709c-3.865-3.194-9.498-3.194-13.363,0l0.709,0.709C13.498,5.803,18.502,5.804,21.973,8.613z"/>
		<path d="M8.611,24.803L7.904,25.51c4.654,3.966,11.538,3.967,16.191,0l-0.707-0.707C19.13,28.383,12.871,28.383,8.611,24.803z"/>
		<path d="M24.803,23.389l0.707,0.707c3.967-4.653,3.967-11.538,0-16.191l-0.707,0.707C28.383,12.871,28.383,19.13,24.803,23.389z"
			/>
		<path d="M23.389,7.197l0.707-0.707c-4.653-3.966-11.539-3.967-16.191,0l0.707,0.707C12.871,3.617,19.129,3.617,23.389,7.197z"/>
		<path d="M7.197,8.611L6.49,7.904c-3.967,4.653-3.966,11.538,0,16.191l0.707-0.707C3.617,19.129,3.617,12.87,7.197,8.611z"/>
	</g>
	<circle cx="16" cy="16" r="3"/>
	<g id="Open_37_">
		<polygon points="4.5,32 0,32 0,27.5 1,27.5 1,31 4.5,31 		"/>
		<polygon points="32,32 27.5,32 27.5,31 31,31 31,27.5 32,27.5 		"/>
		<polygon points="32,4.5 31,4.5 31,1 27.5,1 27.5,0 32,0 		"/>
		<polygon points="1,4.5 0,4.5 0,0 4.5,0 4.5,1 1,1 		"/>
	</g>
</g>
<g id="removecontact_x5F_open">
	<g id="cadre_x5F_open_-_copie_36_11_">
	</g>
</g>
<g id="removecontact_x5F_dome">
</g>
<g id="hypergate">
</g>
<g id="cadre_x5F_brevet">
</g>
<g id="cadre_x5F_lex">
</g>
<g id="_x30_0_x5F_galaxy">
</g>
<g id="_x30_0_x5F_vision">
</g>
</svg>
