<?xml version="1.0" encoding="utf-8"?>
<!-- Generator: Adobe Illustrator 16.0.3, SVG Export Plug-In . SVG Version: 6.00 Build 0)  -->
<!DOCTYPE svg PUBLIC "-//W3C//DTD SVG 1.1//EN" "http://www.w3.org/Graphics/SVG/1.1/DTD/svg11.dtd">
<svg version="1.1" id="Calque_1" xmlns="http://www.w3.org/2000/svg" xmlns:xlink="http://www.w3.org/1999/xlink" x="0px" y="0px"
	 width="32px" height="32px" viewBox="0 0 32 32" enable-background="new 0 0 32 32" xml:space="preserve">
<g>
	<polygon points="1,23.5 0,23.5 0,32 8.5,32 8.5,31 1,31 	"/>
	<rect x="14.269" y="31" width="3.461" height="1"/>
	<polygon points="31,31 23.5,31 23.5,32 32,32 32,23.5 31,23.5 	"/>
	<rect x="31" y="14.27" width="1" height="3.46"/>
	<polygon points="23.5,0 23.5,1 31,1 31,8.5 32,8.5 32,0 	"/>
	<rect x="14.27" width="3.46" height="1"/>
	<polygon points="1,1 8.5,1 8.5,0 0,0 0,8.5 1,8.5 	"/>
	<rect y="14.27" width="1" height="3.46"/>
	<rect x="21" y="8" width="2" height="1"/>
	<rect x="23" y="9" width="1" height="2"/>
	<rect x="21" y="10" width="1" height="1"/>
	<rect x="21" y="13" width="1" height="1"/>
	<polygon points="23,15 24,15 24,12 23,12 23,14 22,14 22,15 	"/>
	<polygon points="21,17 21,15 19,15 19,14 18,14 18,15 17,15 17,16 16,16 16,17 17,17 18,17 18,16 19,16 19,17 	"/>
	<rect x="23" y="18" width="1" height="5"/>
	<polygon points="22,21 22,18 21,18 20,18 20,19 21,19 21,21 19,21 19,20 20,20 20,19 19,19 19,18 18,18 18,21 18,22 22,22 	"/>
	<rect x="21" y="23" width="2" height="1"/>
	<polygon points="18,22 17,22 17,23 17,24 20,24 20,23 18,23 	"/>
	<rect x="9" y="23" width="2" height="1"/>
	<rect x="8" y="21" width="1" height="2"/>
	<rect x="9" y="8" width="2" height="1"/>
	<rect x="8" y="9" width="1" height="5"/>
	<polygon points="9,17 8,17 8,20 9,20 9,18 10,18 10,17 	"/>
	<rect x="10" y="21" width="1" height="1"/>
	<rect x="10" y="18" width="1" height="1"/>
	<polygon points="10,11 10,14 11,14 12,14 12,13 11,13 11,11 13,11 13,12 12,12 12,13 13,13 13,14 14,14 14,11 14,10 10,10 	"/>
	<polygon points="14,10 15,10 15,8 14,8 12,8 12,9 14,9 	"/>
	<rect x="16" y="13" width="2" height="1"/>
	<rect x="14" y="18" width="2" height="1"/>
	<polygon points="15,15 14,15 14,16 13,16 13,15 11,15 11,17 13,17 13,18 14,18 14,17 15,17 15,16 16,16 16,15 	"/>
	<rect x="15" y="11" width="1" height="2"/>
	<rect x="16" y="19" width="1" height="2"/>
	<polygon points="17,9 19,9 19,11 18,11 18,10 17,10 17,12 18,12 19,12 19,13 21,13 21,11 20,11 20,8 19,8 17,8 	"/>
	<rect x="16" y="9" width="1" height="1"/>
	<polygon points="15,23 13,23 13,21 14,21 14,22 15,22 15,20 14,20 13,20 13,19 11,19 11,21 12,21 12,24 13,24 15,24 	"/>
	<rect x="15" y="22" width="1" height="1"/>
</g>
</svg>
