<?xml version="1.0" encoding="utf-8"?>
<!-- Generator: Adobe Illustrator 16.0.3, SVG Export Plug-In . SVG Version: 6.00 Build 0)  -->
<!DOCTYPE svg PUBLIC "-//W3C//DTD SVG 1.1//EN" "http://www.w3.org/Graphics/SVG/1.1/DTD/svg11.dtd">
<svg version="1.1" xmlns="http://www.w3.org/2000/svg" xmlns:xlink="http://www.w3.org/1999/xlink" x="0px" y="0px" width="32px"
	 height="32px" viewBox="0 0 32 32" enable-background="new 0 0 32 32" xml:space="preserve">
<g id="cadre_x5F_open">
</g>
<g id="cadre_x5F_dome">
</g>
<g id="cadre_x5F_orbital">
</g>
<g id="infra_x5F_open">
</g>
<g id="infra_x5F_dome">
</g>
<g id="mine_x5F_dome">
</g>
<g id="mine_x5F_orbital">
</g>
<g id="hab_x5F_open">
</g>
<g id="hab_x5F_dome">
</g>
<g id="hab_x5F_open_x5F_poor">
</g>
<g id="hab_x5F_open_x5F_rich">
</g>
<g id="factory_x5F_open">
</g>
<g id="factory_x5F_orbital">
</g>
<g id="hight_x5F_factory_x5F_dome">
</g>
<g id="lift_x5F_open">
</g>
<g id="lift_x5F_dome">
</g>
<g id="university_x5F_open">
</g>
<g id="research_x5F_open">
</g>
<g id="research_x5F_dome">
</g>
<g id="research_x5F_orbital">
</g>
<g id="ideo_x5F_open">
</g>
<g id="ideo_x5F_dome">
</g>
<g id="monument_x5F_open">
</g>
<g id="monument_x5F_dome">
</g>
<g id="ideo_x5F_credit_x5F_open">
	<path d="M16,10c1.917,0,3,1.782,3,3.5c0,1.479-0.583,4.148-2,4.5c1.869,0.521,2,2.584,2,5.5V28h-6v-4.5c0-2.916,0.192-4.979,2-5.5
		c-1.369-0.352-2-3.021-2-4.5C13,11.782,14.294,10.058,16,10 M16,9h-0.017l-0.018,0C13.816,9.073,12,11.134,12,13.5
		c0,0.896,0.266,3.064,1.268,4.409C12,19.254,12,21.643,12,23.5V28v1h1h6h1v-1v-4.5c0-2.054,0-4.319-1.24-5.603
		C19.744,16.573,20,14.457,20,13.5C20,11.288,18.504,9,16,9L16,9z"/>
	<circle cx="16" cy="13.5" r="2"/>
	<polygon points="19.354,19.854 18.646,19.146 24.293,13.5 16,5.207 7.707,13.5 13.354,19.146 12.646,19.854 6.293,13.5 16,3.793 
		25.707,13.5 	"/>
	<path d="M11,9.5c-0.256,0-0.512-0.098-0.707-0.293l-2-2c-0.391-0.391-0.391-1.023,0-1.414s1.023-0.391,1.414,0l2,2
		c0.391,0.391,0.391,1.023,0,1.414C11.512,9.402,11.256,9.5,11,9.5z"/>
	<path d="M23,21.5c-0.256,0-0.512-0.098-0.707-0.293l-2-2c-0.391-0.391-0.391-1.023,0-1.414s1.023-0.391,1.414,0l2,2
		c0.391,0.391,0.391,1.023,0,1.414C23.512,21.402,23.256,21.5,23,21.5z"/>
	<path d="M21,9.5c-0.256,0-0.512-0.098-0.707-0.293c-0.391-0.391-0.391-1.023,0-1.414l2-2c0.391-0.391,1.023-0.391,1.414,0
		s0.391,1.023,0,1.414l-2,2C21.512,9.402,21.256,9.5,21,9.5z"/>
	<path d="M9,21.5c-0.256,0-0.512-0.098-0.707-0.293c-0.391-0.391-0.391-1.023,0-1.414l2-2c0.391-0.391,1.023-0.391,1.414,0
		s0.391,1.023,0,1.414l-2,2C9.512,21.402,9.256,21.5,9,21.5z"/>
	<g id="Open_25_">
		<polygon points="4.5,32 0,32 0,27.5 1,27.5 1,31 4.5,31 		"/>
		<polygon points="32,32 27.5,32 27.5,31 31,31 31,27.5 32,27.5 		"/>
		<polygon points="32,4.5 31,4.5 31,1 27.5,1 27.5,0 32,0 		"/>
		<polygon points="1,4.5 0,4.5 0,0 4.5,0 4.5,1 1,1 		"/>
	</g>
</g>
<g id="market_x5F_open">
</g>
<g id="market_x5F_dome">
</g>
<g id="finance_x5F_open">
</g>
<g id="finance_x5F_orbital">
</g>
<g id="spatioport_x5F_open">
</g>
<g id="spatioport_x5F_dome">
</g>
<g id="spatioport_x5F_orbital">
</g>
<g id="defense_x5F_global_x5F_dome">
</g>
<g id="defense_x5F_local_x5F_open">
</g>
<g id="defense_x5F_local_x5F_dome">
</g>
<g id="defense_x5F_local_x5F_orbital">
</g>
<g id="happy_x5F_pot_x5F_open">
</g>
<g id="happy_x5F_pot_x5F_dome">
</g>
<g id="happy_x5F_pot_x5F_orbital">
</g>
<g id="happy_x5F_open">
</g>
<g id="happy_x5F_orbital">
</g>
<g id="shipyard_x5F_1_x5F_orbital">
</g>
<g id="shipyard_x5F_2_x5F_orbital">
</g>
<g id="shipyard_x5F_3_x5F_orbital">
</g>
<g id="shipyard_x5F_4_x5F_orbital">
</g>
<g id="military_x5F_school_x5F_dome">
</g>
<g id="radar_x5F_orbital">
</g>
<g id="counterintelligence_x5F_open">
</g>
<g id="removecontact_x5F_open">
	<g id="cadre_x5F_open_-_copie_36_11_">
	</g>
</g>
<g id="removecontact_x5F_dome">
</g>
<g id="hypergate">
</g>
<g id="cadre_x5F_brevet">
</g>
<g id="cadre_x5F_lex">
</g>
<g id="_x30_0_x5F_galaxy">
</g>
<g id="_x30_0_x5F_vision">
</g>
</svg>
