<?xml version="1.0" encoding="utf-8"?>
<!-- Generator: Adobe Illustrator 16.0.3, SVG Export Plug-In . SVG Version: 6.00 Build 0)  -->
<!DOCTYPE svg PUBLIC "-//W3C//DTD SVG 1.1//EN" "http://www.w3.org/Graphics/SVG/1.1/DTD/svg11.dtd">
<svg version="1.1" xmlns="http://www.w3.org/2000/svg" xmlns:xlink="http://www.w3.org/1999/xlink" x="0px" y="0px" width="32px"
	 height="32px" viewBox="0 0 32 32" enable-background="new 0 0 32 32" xml:space="preserve">
<g id="cadre_x5F_open">
</g>
<g id="cadre_x5F_dome">
</g>
<g id="cadre_x5F_orbital">
</g>
<g id="infra_x5F_open">
</g>
<g id="infra_x5F_dome">
</g>
<g id="mine_x5F_dome">
</g>
<g id="mine_x5F_orbital">
</g>
<g id="hab_x5F_open">
</g>
<g id="hab_x5F_dome">
</g>
<g id="hab_x5F_open_x5F_poor">
</g>
<g id="hab_x5F_open_x5F_rich">
</g>
<g id="factory_x5F_open">
</g>
<g id="factory_x5F_orbital">
</g>
<g id="hight_x5F_factory_x5F_dome">
</g>
<g id="lift_x5F_open">
</g>
<g id="lift_x5F_dome">
</g>
<g id="university_x5F_open">
</g>
<g id="research_x5F_open">
</g>
<g id="research_x5F_dome">
</g>
<g id="research_x5F_orbital">
</g>
<g id="ideo_x5F_open">
</g>
<g id="ideo_x5F_dome">
	<path d="M16.698,17.219C18.115,16.867,19,14.479,19,13c0-1.718-1.083-3-3-3c-1.706,0.058-3,1.282-3,3
		c0,1.479,0.852,3.867,2.221,4.219c-1.808,0.521-3.182,2.51-3.182,5.426L12,28h8v-5.355C20,19.729,18.567,17.739,16.698,17.219z
		 M14,13c0-1.104,0.895-2,2-2s2,0.896,2,2s-0.895,2-2,2S14,14.104,14,13z"/>
	<path d="M16,19.5c-3.584,0-6.5-2.916-6.5-6.5s2.916-6.5,6.5-6.5s6.5,2.916,6.5,6.5S19.584,19.5,16,19.5z M16,7.5
		c-3.033,0-5.5,2.467-5.5,5.5s2.467,5.5,5.5,5.5s5.5-2.467,5.5-5.5S19.033,7.5,16,7.5z"/>
	<path d="M9.5,14H7c-0.552,0-1-0.448-1-1s0.448-1,1-1h2.5c0.552,0,1,0.448,1,1S10.052,14,9.5,14z"/>
	<path d="M25,14h-2.5c-0.552,0-1-0.448-1-1s0.448-1,1-1H25c0.552,0,1,0.448,1,1S25.552,14,25,14z"/>
	<path d="M16,7.5c-0.552,0-1-0.448-1-1V4c0-0.552,0.448-1,1-1s1,0.448,1,1v2.5C17,7.052,16.552,7.5,16,7.5z"/>
	<g id="Dome_20_">
		<polygon points="8.5,32 0,32 0,23.5 1,23.5 1,31 8.5,31 		"/>
		<rect x="14.269" y="31" width="3.461" height="1"/>
		<polygon points="32,32 23.5,32 23.5,31 31,31 31,23.5 32,23.5 		"/>
		<rect x="31" y="14.27" width="1" height="3.461"/>
		<polygon points="32,8.5 31,8.5 31,1 23.5,1 23.5,0 32,0 		"/>
		<rect x="14.27" width="3.461" height="1"/>
		<polygon points="1,8.5 0,8.5 0,0 8.5,0 8.5,1 1,1 		"/>
		<rect y="14.269" width="1" height="3.461"/>
	</g>
</g>
<g id="monument_x5F_open">
</g>
<g id="monument_x5F_dome">
</g>
<g id="ideo_x5F_credit_x5F_open">
</g>
<g id="market_x5F_open">
</g>
<g id="market_x5F_dome">
</g>
<g id="finance_x5F_open">
</g>
<g id="finance_x5F_orbital">
</g>
<g id="spatioport_x5F_open">
</g>
<g id="spatioport_x5F_dome">
</g>
<g id="spatioport_x5F_orbital">
</g>
<g id="defense_x5F_global_x5F_dome">
</g>
<g id="defense_x5F_local_x5F_open">
</g>
<g id="defense_x5F_local_x5F_dome">
</g>
<g id="defense_x5F_local_x5F_orbital">
</g>
<g id="happy_x5F_pot_x5F_open">
</g>
<g id="happy_x5F_pot_x5F_dome">
</g>
<g id="happy_x5F_pot_x5F_orbital">
</g>
<g id="happy_x5F_open">
</g>
<g id="happy_x5F_orbital">
</g>
<g id="shipyard_x5F_1_x5F_orbital">
</g>
<g id="shipyard_x5F_2_x5F_orbital">
</g>
<g id="shipyard_x5F_3_x5F_orbital">
</g>
<g id="shipyard_x5F_4_x5F_orbital">
</g>
<g id="military_x5F_school_x5F_dome">
</g>
<g id="radar_x5F_orbital">
</g>
<g id="counterintelligence_x5F_open">
</g>
<g id="removecontact_x5F_open">
	<g id="cadre_x5F_open_-_copie_36_11_">
	</g>
</g>
<g id="removecontact_x5F_dome">
</g>
<g id="hypergate">
</g>
<g id="cadre_x5F_brevet">
</g>
<g id="cadre_x5F_lex">
</g>
<g id="_x30_0_x5F_galaxy">
</g>
<g id="_x30_0_x5F_vision">
</g>
</svg>
