<?xml version="1.0" encoding="utf-8"?>
<!-- Generator: Adobe Illustrator 16.0.3, SVG Export Plug-In . SVG Version: 6.00 Build 0)  -->
<!DOCTYPE svg PUBLIC "-//W3C//DTD SVG 1.1//EN" "http://www.w3.org/Graphics/SVG/1.1/DTD/svg11.dtd">
<svg version="1.1" xmlns="http://www.w3.org/2000/svg" xmlns:xlink="http://www.w3.org/1999/xlink" x="0px" y="0px" width="32px"
	 height="32px" viewBox="0 0 32 32" enable-background="new 0 0 32 32" xml:space="preserve">
<g id="cadre_x5F_open">
</g>
<g id="cadre_x5F_dome">
</g>
<g id="cadre_x5F_orbital">
</g>
<g id="infra_x5F_open">
</g>
<g id="infra_x5F_dome">
</g>
<g id="mine_x5F_dome">
</g>
<g id="mine_x5F_orbital">
	<rect x="8" y="19" width="14" height="4"/>
	<rect x="6" y="17" width="18" height="1"/>
	<path d="M19,24c-1.104,0-2,0.895-2,2s0.896,2,2,2s2-0.895,2-2S20.104,24,19,24z M18.958,27c-0.552,0-1-0.448-1-1s0.448-1,1-1
		s1,0.448,1,1S19.51,27,18.958,27z"/>
	<path d="M11.042,24c-1.104,0-2,0.895-2,2s0.896,2,2,2s2-0.895,2-2S12.146,24,11.042,24z M11,27c-0.552,0-1-0.448-1-1s0.448-1,1-1
		s1,0.448,1,1S11.552,27,11,27z"/>
	<rect x="14" y="24" width="2" height="2"/>
	<rect x="6" y="24" width="2" height="2"/>
	<rect x="22" y="24" width="2" height="2"/>
	<polygon points="10,16 15,11 20,16 	"/>
	<rect x="8" y="4" width="1" height="5"/>
	<rect x="6" y="6" width="5" height="1"/>
	<rect x="23" y="10" width="1" height="3"/>
	<rect x="22" y="11" width="3" height="1"/>
	<g id="Orbital_x5F_02_3_">
		<polygon points="15,32 0,32 0,17 1,17 1,31 15,31 		"/>
		<polygon points="32,32 17,32 17,31 31,31 31,17 32,17 		"/>
		<polygon points="32,15 31,15 31,1 17,1 17,0 32,0 		"/>
		<polygon points="1,15 0,15 0,0 15,0 15,1 1,1 		"/>
	</g>
</g>
<g id="hab_x5F_open">
</g>
<g id="hab_x5F_dome">
</g>
<g id="hab_x5F_open_x5F_poor">
</g>
<g id="hab_x5F_open_x5F_rich">
</g>
<g id="factory_x5F_open">
</g>
<g id="factory_x5F_orbital">
</g>
<g id="hight_x5F_factory_x5F_dome">
</g>
<g id="lift_x5F_open">
</g>
<g id="lift_x5F_dome">
</g>
<g id="university_x5F_open">
</g>
<g id="research_x5F_open">
</g>
<g id="research_x5F_dome">
</g>
<g id="research_x5F_orbital">
</g>
<g id="ideo_x5F_open">
</g>
<g id="ideo_x5F_dome">
</g>
<g id="monument_x5F_open">
</g>
<g id="monument_x5F_dome">
</g>
<g id="ideo_x5F_credit_x5F_open">
</g>
<g id="market_x5F_open">
</g>
<g id="market_x5F_dome">
</g>
<g id="finance_x5F_open">
</g>
<g id="finance_x5F_orbital">
</g>
<g id="spatioport_x5F_open">
</g>
<g id="spatioport_x5F_dome">
</g>
<g id="spatioport_x5F_orbital">
</g>
<g id="defense_x5F_global_x5F_dome">
</g>
<g id="defense_x5F_local_x5F_open">
</g>
<g id="defense_x5F_local_x5F_dome">
</g>
<g id="defense_x5F_local_x5F_orbital">
</g>
<g id="happy_x5F_pot_x5F_open">
</g>
<g id="happy_x5F_pot_x5F_dome">
</g>
<g id="happy_x5F_pot_x5F_orbital">
</g>
<g id="happy_x5F_open">
</g>
<g id="happy_x5F_orbital">
</g>
<g id="shipyard_x5F_1_x5F_orbital">
</g>
<g id="shipyard_x5F_2_x5F_orbital">
</g>
<g id="shipyard_x5F_3_x5F_orbital">
</g>
<g id="shipyard_x5F_4_x5F_orbital">
</g>
<g id="military_x5F_school_x5F_dome">
</g>
<g id="radar_x5F_orbital">
</g>
<g id="counterintelligence_x5F_open">
</g>
<g id="removecontact_x5F_open">
	<g id="cadre_x5F_open_-_copie_36_11_">
	</g>
</g>
<g id="removecontact_x5F_dome">
</g>
<g id="hypergate">
</g>
<g id="cadre_x5F_brevet">
</g>
<g id="cadre_x5F_lex">
</g>
<g id="_x30_0_x5F_galaxy">
</g>
<g id="_x30_0_x5F_vision">
</g>
</svg>
