<?xml version="1.0" encoding="utf-8"?>
<!-- Generator: Adobe Illustrator 16.0.3, SVG Export Plug-In . SVG Version: 6.00 Build 0)  -->
<!DOCTYPE svg PUBLIC "-//W3C//DTD SVG 1.1//EN" "http://www.w3.org/Graphics/SVG/1.1/DTD/svg11.dtd">
<svg version="1.1" xmlns="http://www.w3.org/2000/svg" xmlns:xlink="http://www.w3.org/1999/xlink" x="0px" y="0px" width="32px"
	 height="32px" viewBox="0 0 32 32" enable-background="new 0 0 32 32" xml:space="preserve">
<g id="cadre_x5F_open">
</g>
<g id="cadre_x5F_dome">
</g>
<g id="cadre_x5F_orbital">
</g>
<g id="infra_x5F_open">
</g>
<g id="infra_x5F_dome">
</g>
<g id="mine_x5F_dome">
</g>
<g id="mine_x5F_orbital">
</g>
<g id="hab_x5F_open">
</g>
<g id="hab_x5F_dome">
</g>
<g id="hab_x5F_open_x5F_poor">
</g>
<g id="hab_x5F_open_x5F_rich">
</g>
<g id="factory_x5F_open">
</g>
<g id="factory_x5F_orbital">
</g>
<g id="hight_x5F_factory_x5F_dome">
</g>
<g id="lift_x5F_open">
</g>
<g id="lift_x5F_dome">
</g>
<g id="university_x5F_open">
</g>
<g id="research_x5F_open">
</g>
<g id="research_x5F_dome">
</g>
<g id="research_x5F_orbital">
</g>
<g id="ideo_x5F_open">
</g>
<g id="ideo_x5F_dome">
</g>
<g id="monument_x5F_open">
</g>
<g id="monument_x5F_dome">
</g>
<g id="ideo_x5F_credit_x5F_open">
</g>
<g id="market_x5F_open">
</g>
<g id="market_x5F_dome">
</g>
<g id="finance_x5F_open">
</g>
<g id="finance_x5F_orbital">
</g>
<g id="spatioport_x5F_open">
</g>
<g id="spatioport_x5F_dome">
</g>
<g id="spatioport_x5F_orbital">
</g>
<g id="defense_x5F_global_x5F_dome">
</g>
<g id="defense_x5F_local_x5F_open">
</g>
<g id="defense_x5F_local_x5F_dome">
</g>
<g id="defense_x5F_local_x5F_orbital">
</g>
<g id="happy_x5F_pot_x5F_open">
</g>
<g id="happy_x5F_pot_x5F_dome">
</g>
<g id="happy_x5F_pot_x5F_orbital">
</g>
<g id="happy_x5F_open">
</g>
<g id="happy_x5F_orbital">
</g>
<g id="shipyard_x5F_1_x5F_orbital">
</g>
<g id="shipyard_x5F_2_x5F_orbital">
</g>
<g id="shipyard_x5F_3_x5F_orbital">
</g>
<g id="shipyard_x5F_4_x5F_orbital">
</g>
<g id="military_x5F_school_x5F_dome">
</g>
<g id="radar_x5F_orbital">
	<path d="M16,18.5c-1.378,0-2.5-1.121-2.5-2.5s1.122-2.5,2.5-2.5v1c-0.827,0-1.5,0.673-1.5,1.5s0.673,1.5,1.5,1.5s1.5-0.673,1.5-1.5
		h1C18.5,17.379,17.378,18.5,16,18.5z"/>
	<path d="M16,20.5c-2.481,0-4.5-2.019-4.5-4.5s2.019-4.5,4.5-4.5v1c-1.93,0-3.5,1.57-3.5,3.5s1.57,3.5,3.5,3.5s3.5-1.57,3.5-3.5h1
		C20.5,18.481,18.481,20.5,16,20.5z"/>
	<path d="M16,22.5c-3.584,0-6.5-2.916-6.5-6.5s2.916-6.5,6.5-6.5v1c-3.033,0-5.5,2.468-5.5,5.5s2.467,5.5,5.5,5.5s5.5-2.468,5.5-5.5
		h1C22.5,19.584,19.584,22.5,16,22.5z"/>
	<path d="M16,24.5c-4.687,0-8.5-3.813-8.5-8.5s3.813-8.5,8.5-8.5v1c-4.136,0-7.5,3.364-7.5,7.5s3.364,7.5,7.5,7.5s7.5-3.364,7.5-7.5
		h1C24.5,20.687,20.687,24.5,16,24.5z"/>
	<path d="M16,26.5c-5.79,0-10.5-4.71-10.5-10.5S10.21,5.5,16,5.5v1c-5.238,0-9.5,4.262-9.5,9.5s4.262,9.5,9.5,9.5s9.5-4.262,9.5-9.5
		h1C26.5,21.79,21.79,26.5,16,26.5z"/>
	<rect x="15" y="6" width="1" height="8"/>
	<rect x="21" y="11" width="1" height="3"/>
	<rect x="20" y="12" width="3" height="1"/>
	<rect x="16" y="22" width="1" height="3"/>
	<rect x="15" y="23" width="3" height="1"/>
	<rect x="9" y="15" width="1" height="3"/>
	<rect x="8" y="16" width="3" height="1"/>
	<g id="Orbital_x5F_02_29_">
		<polygon points="15,32 0,32 0,17 1,17 1,31 15,31 		"/>
		<polygon points="32,32 17,32 17,31 31,31 31,17 32,17 		"/>
		<polygon points="32,15 31,15 31,1 17,1 17,0 32,0 		"/>
		<polygon points="1,15 0,15 0,0 15,0 15,1 1,1 		"/>
	</g>
</g>
<g id="counterintelligence_x5F_open">
</g>
<g id="removecontact_x5F_open">
	<g id="cadre_x5F_open_-_copie_36_11_">
	</g>
</g>
<g id="removecontact_x5F_dome">
</g>
<g id="hypergate">
</g>
<g id="cadre_x5F_brevet">
</g>
<g id="cadre_x5F_lex">
</g>
<g id="_x30_0_x5F_galaxy">
</g>
<g id="_x30_0_x5F_vision">
</g>
</svg>
