<?xml version="1.0" encoding="utf-8"?>
<!-- Generator: Adobe Illustrator 16.0.3, SVG Export Plug-In . SVG Version: 6.00 Build 0)  -->
<!DOCTYPE svg PUBLIC "-//W3C//DTD SVG 1.1//EN" "http://www.w3.org/Graphics/SVG/1.1/DTD/svg11.dtd">
<svg version="1.1" xmlns="http://www.w3.org/2000/svg" xmlns:xlink="http://www.w3.org/1999/xlink" x="0px" y="0px" width="32px"
	 height="32px" viewBox="0 0 32 32" enable-background="new 0 0 32 32" xml:space="preserve">
<g id="cadre_x5F_open">
</g>
<g id="cadre_x5F_dome">
</g>
<g id="cadre_x5F_orbital">
</g>
<g id="infra_x5F_open">
</g>
<g id="infra_x5F_dome">
</g>
<g id="mine_x5F_dome">
</g>
<g id="mine_x5F_orbital">
</g>
<g id="hab_x5F_open">
</g>
<g id="hab_x5F_dome">
</g>
<g id="hab_x5F_open_x5F_poor">
</g>
<g id="hab_x5F_open_x5F_rich">
</g>
<g id="factory_x5F_open">
</g>
<g id="factory_x5F_orbital">
</g>
<g id="hight_x5F_factory_x5F_dome">
</g>
<g id="lift_x5F_open">
</g>
<g id="lift_x5F_dome">
</g>
<g id="university_x5F_open">
</g>
<g id="research_x5F_open">
</g>
<g id="research_x5F_dome">
</g>
<g id="research_x5F_orbital">
</g>
<g id="ideo_x5F_open">
</g>
<g id="ideo_x5F_dome">
</g>
<g id="monument_x5F_open">
</g>
<g id="monument_x5F_dome">
</g>
<g id="ideo_x5F_credit_x5F_open">
</g>
<g id="market_x5F_open">
</g>
<g id="market_x5F_dome">
</g>
<g id="finance_x5F_open">
</g>
<g id="finance_x5F_orbital">
</g>
<g id="spatioport_x5F_open">
</g>
<g id="spatioport_x5F_dome">
</g>
<g id="spatioport_x5F_orbital">
</g>
<g id="defense_x5F_global_x5F_dome">
</g>
<g id="defense_x5F_local_x5F_open">
</g>
<g id="defense_x5F_local_x5F_dome">
</g>
<g id="defense_x5F_local_x5F_orbital">
</g>
<g id="happy_x5F_pot_x5F_open">
</g>
<g id="happy_x5F_pot_x5F_dome">
</g>
<g id="happy_x5F_pot_x5F_orbital">
</g>
<g id="happy_x5F_open">
</g>
<g id="happy_x5F_orbital">
</g>
<g id="shipyard_x5F_1_x5F_orbital">
</g>
<g id="shipyard_x5F_2_x5F_orbital">
</g>
<g id="shipyard_x5F_3_x5F_orbital">
</g>
<g id="shipyard_x5F_4_x5F_orbital">
</g>
<g id="military_x5F_school_x5F_dome">
</g>
<g id="radar_x5F_orbital">
</g>
<g id="counterintelligence_x5F_open">
</g>
<g id="removecontact_x5F_open">
	<g id="cadre_x5F_open_-_copie_36_11_">
	</g>
</g>
<g id="removecontact_x5F_dome">
	<circle cx="16" cy="14.536" r="2"/>
	<rect x="15.5" y="14.536" width="1" height="13"/>
	<g>
		<path d="M21.769,21.448l0.605,0.734c4.01-3.304,4.779-9.099,1.924-13.317L23.56,9.473C26.085,13.283,25.373,18.477,21.769,21.448z
			"/>
		<path display="none" d="M20.558,19.978l0.603,0.735c3.198-2.636,3.849-7.226,1.659-10.628l-0.746,0.613
			C23.937,13.689,23.347,17.677,20.558,19.978z"/>
		<path d="M19.343,18.508l0.607,0.734c2.385-1.966,2.909-5.352,1.383-7.933l-0.744,0.613C21.792,14.088,21.322,16.877,19.343,18.508
			z"/>
		<path d="M9.957,22.447l0.574-0.761c-3.726-2.815-4.655-7.976-2.297-11.89L7.472,9.221C4.798,13.558,5.811,19.313,9.957,22.447z"/>
		<path display="none" d="M11.104,20.926l0.576-0.761c-2.885-2.181-3.642-6.139-1.907-9.207l-0.771-0.581
			C6.957,13.869,7.8,18.428,11.104,20.926z"/>
		<path d="M12.254,19.406l0.574-0.76c-2.044-1.548-2.632-4.313-1.522-6.527l-0.769-0.581C9.121,14.18,9.79,17.543,12.254,19.406z"/>
		<path d="M21.937,7.631l0.623-0.719c-3.919-3.408-9.763-3.211-13.452,0.301L9.83,7.84C13.17,4.724,18.409,4.568,21.937,7.631z"/>
		<path display="none" d="M20.686,9.069l0.625-0.72c-3.127-2.717-7.764-2.6-10.754,0.123l0.727,0.632
			C13.926,6.774,17.957,6.696,20.686,9.069z"/>
		<path d="M19.437,10.509l0.624-0.72c-2.333-2.027-5.76-1.988-8.052-0.054l0.728,0.632C14.673,8.823,17.501,8.825,19.437,10.509z"/>
	</g>
	<g id="Dome_7_">
		<polygon points="8.5,32 0,32 0,23.5 1,23.5 1,31 8.5,31 		"/>
		<rect x="14.269" y="31" width="3.461" height="1"/>
		<polygon points="32,32 23.5,32 23.5,31 31,31 31,23.5 32,23.5 		"/>
		<rect x="31" y="14.269" width="1" height="3.462"/>
		<polygon points="32,8.5 31,8.5 31,1 23.5,1 23.5,0 32,0 		"/>
		<rect x="14.27" width="3.461" height="1"/>
		<polygon points="1,8.5 0,8.5 0,0 8.5,0 8.5,1 1,1 		"/>
		<rect y="14.27" width="1" height="3.462"/>
	</g>
</g>
<g id="hypergate">
</g>
<g id="cadre_x5F_brevet">
</g>
<g id="cadre_x5F_lex">
</g>
<g id="_x30_0_x5F_galaxy">
</g>
<g id="_x30_0_x5F_vision">
</g>
</svg>
