<?xml version="1.0" encoding="utf-8"?>
<!-- Generator: Adobe Illustrator 16.0.3, SVG Export Plug-In . SVG Version: 6.00 Build 0)  -->
<!DOCTYPE svg PUBLIC "-//W3C//DTD SVG 1.1//EN" "http://www.w3.org/Graphics/SVG/1.1/DTD/svg11.dtd">
<svg version="1.1" xmlns="http://www.w3.org/2000/svg" xmlns:xlink="http://www.w3.org/1999/xlink" x="0px" y="0px" width="20px"
	 height="20px" viewBox="0 0 20 20" enable-background="new 0 0 20 20" xml:space="preserve">
<g id="Calque_1">
</g>
<g id="Calque_2">
</g>
<g id="Calque_3">
</g>
<g id="Calque_4">
</g>
<g id="Calque_5">
</g>
<g id="Calque_6">
</g>
<g id="Calque_7">
</g>
<g id="Calque_8">
</g>
<g id="Calque_9">
</g>
<g id="Calque_10">
</g>
<g id="Calque_11">
</g>
<g id="Calque_12">
</g>
<g id="Calque_13">
</g>
<g id="Calque_17">
	<g>
		<path d="M10,0C4.477,0,0,4.477,0,10s4.477,10,10,10s10-4.477,10-10S15.523,0,10,0z M16.707,10.707L14.414,13l1.543,1.543
			c0.391,0.391,0.391,1.023,0,1.414c-0.195,0.195-0.451,0.293-0.707,0.293s-0.512-0.098-0.707-0.293L13,14.414l-2.293,2.293
			C10.512,16.902,10.256,17,10,17s-0.512-0.098-0.707-0.293L7,14.414l-1.543,1.543C5.262,16.152,5.006,16.25,4.75,16.25
			s-0.512-0.098-0.707-0.293c-0.391-0.391-0.391-1.023,0-1.414L5.586,13l-2.293-2.293c-0.391-0.391-0.391-1.023,0-1.414L5.586,7
			L4.043,5.457c-0.391-0.391-0.391-1.023,0-1.414s1.023-0.391,1.414,0L7,5.586l2.293-2.293c0.391-0.391,1.023-0.391,1.414,0
			L13,5.586l1.544-1.543c0.391-0.391,1.023-0.391,1.414,0s0.391,1.023,0,1.414L14.414,7l2.293,2.293
			C17.098,9.684,17.098,10.316,16.707,10.707z"/>
		<rect x="6.757" y="6.757" transform="matrix(-0.7071 -0.7071 0.7071 -0.7071 10 24.1421)" width="6.485" height="6.485"/>
	</g>
</g>
<g id="Calque_18">
</g>
<g id="Calque_19">
</g>
<g id="Calque_20">
</g>
<g id="Calque_21">
</g>
<g id="Calque_22">
</g>
<g id="Calque_14">
</g>
<g id="Calque_15">
</g>
<g id="Calque_16">
</g>
</svg>
