<?xml version="1.0" encoding="utf-8"?>
<!-- Generator: Adobe Illustrator 16.0.3, SVG Export Plug-In . SVG Version: 6.00 Build 0)  -->
<!DOCTYPE svg PUBLIC "-//W3C//DTD SVG 1.1//EN" "http://www.w3.org/Graphics/SVG/1.1/DTD/svg11.dtd">
<svg version="1.1" xmlns="http://www.w3.org/2000/svg" xmlns:xlink="http://www.w3.org/1999/xlink" x="0px" y="0px" width="20px"
	 height="20px" viewBox="0 0 20 20" enable-background="new 0 0 20 20" xml:space="preserve">
<g id="Calque_1">
</g>
<g id="Calque_2">
</g>
<g id="Calque_3">
</g>
<g id="Calque_4">
</g>
<g id="Calque_5">
</g>
<g id="Calque_6">
</g>
<g id="Calque_7">
</g>
<g id="Calque_8">
</g>
<g id="Calque_9">
</g>
<g id="Calque_10">
</g>
<g id="Calque_11">
</g>
<g id="Calque_12">
</g>
<g id="Calque_13">
</g>
<g id="Calque_17">
</g>
<g id="Calque_18">
</g>
<g id="Calque_23">
</g>
<g id="Calque_20">
</g>
<g id="Calque_21">
</g>
<g id="Calque_22">
</g>
<g id="Calque_24">
	<g>
		<circle cx="10" cy="5" r="1.001"/>
		<circle cx="10" cy="15" r="1.001"/>
		<path d="M10,0C4.478,0,0,4.478,0,10s4.478,10,10,10c5.523,0,10-4.478,10-10S15.523,0,10,0z M10,1.999c1.654,0,3,1.347,3,3.001
			s-1.346,3.001-3,3.001S7,6.655,7,5S8.346,1.999,10,1.999z M5.73,7.649C5.948,7.481,6.263,7.52,6.432,7.741
			C7.291,8.859,8.592,9.5,10,9.5s2.709-0.641,3.568-1.759c0.169-0.219,0.483-0.259,0.701-0.092c0.219,0.168,0.26,0.482,0.092,0.701
			C13.311,9.716,11.721,10.5,10,10.5S6.689,9.716,5.639,8.35C5.471,8.131,5.512,7.817,5.73,7.649z M16.892,12.92
			c-1.134,0.988-2.468,1.704-3.896,2.13c-0.027,1.631-1.358,2.952-2.995,2.952c-1.639,0-2.97-1.322-2.995-2.956
			c-1.43-0.426-2.767-1.141-3.897-2.127c-0.209-0.182-0.23-0.498-0.049-0.706c0.182-0.208,0.497-0.23,0.705-0.048
			c0.992,0.865,2.157,1.501,3.403,1.892c0.397-1.191,1.511-2.058,2.833-2.058c1.324,0,2.438,0.869,2.835,2.062
			c1.245-0.39,2.406-1.029,3.4-1.895c0.208-0.182,0.524-0.159,0.705,0.048C17.122,12.423,17.101,12.739,16.892,12.92z"/>
	</g>
</g>
<g id="Calque_25">
</g>
<g id="Calque_26">
</g>
<g id="Calque_27">
</g>
<g id="Calque_28">
</g>
<g id="Calque_29">
</g>
<g id="Calque_30">
</g>
<g id="Calque_31">
</g>
<g id="Calque_32">
</g>
<g id="Calque_33">
</g>
<g id="Calque_34">
</g>
<g id="Calque_14">
</g>
<g id="Calque_15">
</g>
<g id="Calque_16">
</g>
</svg>
