<?xml version="1.0" encoding="utf-8"?>
<!-- Generator: Adobe Illustrator 16.0.3, SVG Export Plug-In . SVG Version: 6.00 Build 0)  -->
<!DOCTYPE svg PUBLIC "-//W3C//DTD SVG 1.1//EN" "http://www.w3.org/Graphics/SVG/1.1/DTD/svg11.dtd">
<svg version="1.1" xmlns="http://www.w3.org/2000/svg" xmlns:xlink="http://www.w3.org/1999/xlink" x="0px" y="0px" width="20px"
	 height="20px" viewBox="0 0 20 20" enable-background="new 0 0 20 20" xml:space="preserve">
<g id="Calque_1">
</g>
<g id="Calque_2">
</g>
<g id="Calque_3">
</g>
<g id="Calque_4">
</g>
<g id="Calque_5">
</g>
<g id="Calque_6">
</g>
<g id="Calque_7">
</g>
<g id="Calque_8">
</g>
<g id="Calque_9">
</g>
<g id="Calque_10">
</g>
<g id="Calque_11">
</g>
<g id="Calque_12">
</g>
<g id="Calque_13">
</g>
<g id="Calque_17">
</g>
<g id="Calque_18">
</g>
<g id="Calque_23">
</g>
<g id="Calque_20">
</g>
<g id="Calque_21">
</g>
<g id="Calque_22">
	<path d="M10,0C4.478,0,0,4.478,0,10s4.478,10,10,10s10-4.478,10-10S15.522,0,10,0z M13.646,15.702l-1.578,1.592l-0.711-0.704
		l1.229-1.239L11.247,14H8.768l-1.351,1.351l1.238,1.237l-0.707,0.707l-1.592-1.591C6.263,15.61,6.21,15.483,6.21,15.351
		s0.053-0.26,0.146-0.354L8,13.354L8.354,13h0.59H9v-1.9c0.5,0.188,1.391,0.268,2,0.08V13h0.076h0.588L12,13.338l1.646,1.66
		C13.838,15.193,13.838,15.508,13.646,15.702z M12.434,9.809c-0.586,0.586-1.354,0.879-2.121,0.879s-1.535-0.293-2.121-0.879
		c-1.172-1.171-1.172-3.071,0-4.242l3.405-3.406c2.106,0.429,3.913,1.688,5.065,3.419L12.434,9.809z"/>
	<circle cx="10" cy="8" r="1"/>
</g>
<g id="Calque_24">
</g>
<g id="Calque_25">
</g>
<g id="Calque_26">
</g>
<g id="Calque_27">
</g>
<g id="Calque_28">
</g>
<g id="Calque_29">
</g>
<g id="Calque_30">
</g>
<g id="Calque_31">
</g>
<g id="Calque_32">
</g>
<g id="Calque_33">
</g>
<g id="Calque_34">
</g>
<g id="Calque_14">
</g>
<g id="Calque_15">
</g>
<g id="Calque_16">
</g>
</svg>
