<?xml version="1.0" encoding="utf-8"?>
<!-- Generator: Adobe Illustrator 16.0.3, SVG Export Plug-In . SVG Version: 6.00 Build 0)  -->
<!DOCTYPE svg PUBLIC "-//W3C//DTD SVG 1.1//EN" "http://www.w3.org/Graphics/SVG/1.1/DTD/svg11.dtd">
<svg version="1.1" xmlns="http://www.w3.org/2000/svg" xmlns:xlink="http://www.w3.org/1999/xlink" x="0px" y="0px" width="32px"
	 height="32px" viewBox="0 0 32 32" enable-background="new 0 0 32 32" xml:space="preserve">
<g id="cadre_x5F_open">
</g>
<g id="cadre_x5F_dome">
</g>
<g id="cadre_x5F_orbital">
</g>
<g id="infra_x5F_open">
</g>
<g id="infra_x5F_dome">
</g>
<g id="mine_x5F_dome">
</g>
<g id="mine_x5F_orbital">
</g>
<g id="hab_x5F_open">
</g>
<g id="hab_x5F_dome">
</g>
<g id="hab_x5F_open_x5F_poor">
</g>
<g id="hab_x5F_open_x5F_rich">
</g>
<g id="factory_x5F_open">
</g>
<g id="factory_x5F_orbital">
</g>
<g id="hight_x5F_factory_x5F_dome">
</g>
<g id="lift_x5F_open">
</g>
<g id="lift_x5F_dome">
</g>
<g id="university_x5F_open">
</g>
<g id="research_x5F_open">
</g>
<g id="research_x5F_dome">
</g>
<g id="research_x5F_orbital">
</g>
<g id="ideo_x5F_open">
</g>
<g id="ideo_x5F_dome">
</g>
<g id="monument_x5F_open">
</g>
<g id="monument_x5F_dome">
</g>
<g id="ideo_x5F_credit_x5F_open">
</g>
<g id="market_x5F_open">
</g>
<g id="market_x5F_dome">
</g>
<g id="finance_x5F_open">
</g>
<g id="finance_x5F_orbital">
</g>
<g id="spatioport_x5F_open">
</g>
<g id="spatioport_x5F_dome">
</g>
<g id="spatioport_x5F_orbital">
</g>
<g id="defense_x5F_global_x5F_dome">
</g>
<g id="defense_x5F_local_x5F_open">
</g>
<g id="defense_x5F_local_x5F_dome">
</g>
<g id="defense_x5F_local_x5F_orbital">
</g>
<g id="happy_x5F_pot_x5F_open">
</g>
<g id="happy_x5F_pot_x5F_dome">
</g>
<g id="happy_x5F_pot_x5F_orbital">
	<path d="M12.125,17c2,2,3,1,3,3s0,2-1,3v1h4v-1c-1-1-1-1-1-3s1-1,3-3c3-3-2-6,0-9h-8C14.125,11,9.125,14,12.125,17z"/>
	<polygon points="11.125,7 21.125,7 22.125,5 10.125,5 	"/>
	<rect x="12.125" y="25" width="8" height="1"/>
	<path d="M13.844,9l-1.49,5.96c-1.294-0.12-3.394-0.538-4.522-1.667C6.786,12.247,6.792,10.246,6.958,9h1.167H13.844 M15.125,8h-7
		h-2c0,0-1,4,1,6s6,2,6,2L15.125,8L15.125,8z"/>
	<path d="M25.031,9c0.155,1.106,0.252,3.17-0.911,4.274c-1.3,1.232-3.665,1.585-4.876,1.686L17.673,9h6.08H25.031 M25.861,8h-2.108
		h-7.378l2.109,8c0,0,4.215,0,6.324-2C26.915,12,25.861,8,25.861,8L25.861,8z"/>
	<g id="Orbital_x5F_02_17_">
		<polygon points="15,32 0,32 0,17 1,17 1,31 15,31 		"/>
		<polygon points="32,32 17,32 17,31 31,31 31,17 32,17 		"/>
		<polygon points="32,15 31,15 31,1 17,1 17,0 32,0 		"/>
		<polygon points="1,15 0,15 0,0 15,0 15,1 1,1 		"/>
	</g>
</g>
<g id="happy_x5F_open">
</g>
<g id="happy_x5F_orbital">
</g>
<g id="shipyard_x5F_1_x5F_orbital">
</g>
<g id="shipyard_x5F_2_x5F_orbital">
</g>
<g id="shipyard_x5F_3_x5F_orbital">
</g>
<g id="shipyard_x5F_4_x5F_orbital">
</g>
<g id="military_x5F_school_x5F_dome">
</g>
<g id="radar_x5F_orbital">
</g>
<g id="counterintelligence_x5F_open">
</g>
<g id="removecontact_x5F_open">
	<g id="cadre_x5F_open_-_copie_36_11_">
	</g>
</g>
<g id="removecontact_x5F_dome">
</g>
<g id="hypergate">
</g>
<g id="cadre_x5F_brevet">
</g>
<g id="cadre_x5F_lex">
</g>
<g id="_x30_0_x5F_galaxy">
</g>
<g id="_x30_0_x5F_vision">
</g>
</svg>
