<?xml version="1.0" encoding="utf-8"?>
<!-- Generator: Adobe Illustrator 16.0.3, SVG Export Plug-In . SVG Version: 6.00 Build 0)  -->
<!DOCTYPE svg PUBLIC "-//W3C//DTD SVG 1.1//EN" "http://www.w3.org/Graphics/SVG/1.1/DTD/svg11.dtd">
<svg version="1.1" xmlns="http://www.w3.org/2000/svg" xmlns:xlink="http://www.w3.org/1999/xlink" x="0px" y="0px" width="32px"
	 height="32px" viewBox="0 0 32 32" enable-background="new 0 0 32 32" xml:space="preserve">
<g id="cadre_x5F_open">
</g>
<g id="cadre_x5F_dome">
</g>
<g id="cadre_x5F_orbital">
</g>
<g id="infra_x5F_open">
</g>
<g id="infra_x5F_dome">
</g>
<g id="mine_x5F_dome">
</g>
<g id="mine_x5F_orbital">
</g>
<g id="hab_x5F_open">
</g>
<g id="hab_x5F_dome">
</g>
<g id="hab_x5F_open_x5F_poor">
</g>
<g id="hab_x5F_open_x5F_rich">
</g>
<g id="factory_x5F_open">
</g>
<g id="factory_x5F_orbital">
</g>
<g id="hight_x5F_factory_x5F_dome">
</g>
<g id="lift_x5F_open">
</g>
<g id="lift_x5F_dome">
</g>
<g id="university_x5F_open">
</g>
<g id="research_x5F_open">
</g>
<g id="research_x5F_dome">
</g>
<g id="research_x5F_orbital">
</g>
<g id="ideo_x5F_open">
</g>
<g id="ideo_x5F_dome">
</g>
<g id="monument_x5F_open">
</g>
<g id="monument_x5F_dome">
</g>
<g id="ideo_x5F_credit_x5F_open">
</g>
<g id="market_x5F_open">
</g>
<g id="market_x5F_dome">
</g>
<g id="finance_x5F_open">
</g>
<g id="finance_x5F_orbital">
</g>
<g id="spatioport_x5F_open">
</g>
<g id="spatioport_x5F_dome">
</g>
<g id="spatioport_x5F_orbital">
</g>
<g id="defense_x5F_global_x5F_dome">
</g>
<g id="defense_x5F_local_x5F_open">
</g>
<g id="defense_x5F_local_x5F_dome">
</g>
<g id="defense_x5F_local_x5F_orbital">
</g>
<g id="happy_x5F_pot_x5F_open">
</g>
<g id="happy_x5F_pot_x5F_dome">
</g>
<g id="happy_x5F_pot_x5F_orbital">
</g>
<g id="happy_x5F_open">
	<g>
		<polygon points="8.984,22 8.984,15 10.984,20 10.984,15 12.984,20 15.984,14 18.984,20 20.984,15 20.984,20 22.984,15 22.984,22 
					"/>
	</g>
	<path d="M14.234,15l1.75-3l1.75,3h1.25c0,0,2-2,0-4c-1-1-5-1-6,0c-2,2,0,4,0,4H14.234z"/>
	<polygon points="14.984,8 15.984,9 16.984,8 16.984,6 15.984,5 14.984,6 	"/>
	<path d="M23.484,22.006l-1-0.006c0-0.049,0.013-1.22,1.146-2.354c0.919-0.919,2.338-2.734,2.906-3.87
		c0.934-1.868,0.934-3.685,0-5.553c-0.933-1.866-3.74-2.635-6.395-1.749c-2.585,0.861-2.656,2.464-2.658,2.531l-1-0.006
		c0-0.097,0.038-2.373,3.342-3.475c3.115-1.038,6.456-0.049,7.605,2.251c1.069,2.139,1.069,4.309,0,6.447
		c-0.62,1.239-2.1,3.137-3.094,4.13C23.512,21.179,23.485,21.972,23.484,22.006z"/>
	<path d="M8.485,22.021c-0.002-0.029-0.061-0.839-0.862-1.676c-0.923-0.964-2.492-2.882-3.09-4.13c-1.022-2.134-1.022-4.298,0-6.432
		c1.092-2.28,4.578-3.313,7.616-2.257c3.15,1.097,3.329,3.346,3.334,3.441l-0.998,0.068c-0.006-0.069-0.173-1.697-2.666-2.564
		C9.286,7.59,6.303,8.405,5.436,10.216c-0.897,1.873-0.897,3.695,0,5.568c0.492,1.028,1.894,2.81,2.91,3.87
		c1.075,1.123,1.137,2.275,1.139,2.324L8.485,22.021z"/>
	<rect x="9.984" y="23" width="12" height="4"/>
	<g id="Open_35_">
		<polygon points="4.5,32 0,32 0,27.5 1,27.5 1,31 4.5,31 		"/>
		<polygon points="32,32 27.5,32 27.5,31 31,31 31,27.5 32,27.5 		"/>
		<polygon points="32,4.5 31,4.5 31,1 27.5,1 27.5,0 32,0 		"/>
		<polygon points="1,4.5 0,4.5 0,0 4.5,0 4.5,1 1,1 		"/>
	</g>
</g>
<g id="happy_x5F_orbital">
</g>
<g id="shipyard_x5F_1_x5F_orbital">
</g>
<g id="shipyard_x5F_2_x5F_orbital">
</g>
<g id="shipyard_x5F_3_x5F_orbital">
</g>
<g id="shipyard_x5F_4_x5F_orbital">
</g>
<g id="military_x5F_school_x5F_dome">
</g>
<g id="radar_x5F_orbital">
</g>
<g id="counterintelligence_x5F_open">
</g>
<g id="removecontact_x5F_open">
	<g id="cadre_x5F_open_-_copie_36_11_">
	</g>
</g>
<g id="removecontact_x5F_dome">
</g>
<g id="hypergate">
</g>
<g id="cadre_x5F_brevet">
</g>
<g id="cadre_x5F_lex">
</g>
<g id="_x30_0_x5F_galaxy">
</g>
<g id="_x30_0_x5F_vision">
</g>
</svg>
