<?xml version="1.0" encoding="utf-8"?>
<!-- Generator: Adobe Illustrator 16.0.3, SVG Export Plug-In . SVG Version: 6.00 Build 0)  -->
<!DOCTYPE svg PUBLIC "-//W3C//DTD SVG 1.1//EN" "http://www.w3.org/Graphics/SVG/1.1/DTD/svg11.dtd">
<svg version="1.1" xmlns="http://www.w3.org/2000/svg" xmlns:xlink="http://www.w3.org/1999/xlink" x="0px" y="0px" width="20px"
	 height="20px" viewBox="0 0 20 20" enable-background="new 0 0 20 20" xml:space="preserve">
<g id="Calque_1">
</g>
<g id="Calque_2">
</g>
<g id="Calque_3">
</g>
<g id="Calque_4">
</g>
<g id="Calque_5">
</g>
<g id="Calque_6">
</g>
<g id="Calque_7">
</g>
<g id="Calque_8">
</g>
<g id="Calque_9">
</g>
<g id="Calque_10">
</g>
<g id="Calque_11">
</g>
<g id="Calque_12">
</g>
<g id="Calque_13">
</g>
<g id="Calque_17">
</g>
<g id="Calque_18">
</g>
<g id="Calque_23">
</g>
<g id="Calque_20">
	<path d="M10,0C4.477,0,0,4.477,0,10s4.477,10,10,10s10-4.477,10-10S15.523,0,10,0z M9.859,18c-1.958,0-3.743-0.779-5.118-1.982
		l0.023-2.685c0-2.328,1.097-3.917,2.542-4.334C6.212,8.718,5.399,7.729,5.399,6.546C5.399,5.144,6.532,4,7.938,4
		c1.402,0,2.539,1.119,2.539,2.521c0,1.174-0.805,2.12-1.886,2.408c1.384,0.373,2.325,1.841,2.39,3.954
		c0.32-0.816,0.888-1.235,1.563-1.431c-0.793-0.205-1.386-0.923-1.386-1.783c0-1.021,0.825-1.846,1.846-1.846
		c1.016,0,1.844,0.825,1.844,1.846c0,0.856-0.587,1.568-1.369,1.78c1.04,0.28,1.741,1.462,1.741,3.087l0.024,1.49
		c-1.146,0.999-2.64,1.674-4.218,1.89L9.859,18z M10.98,12.884"/>
</g>
<g id="Calque_21">
</g>
<g id="Calque_22">
</g>
<g id="Calque_24">
</g>
<g id="Calque_25">
</g>
<g id="Calque_26">
</g>
<g id="Calque_27">
</g>
<g id="Calque_28">
</g>
<g id="Calque_29">
</g>
<g id="Calque_30">
</g>
<g id="Calque_31">
</g>
<g id="Calque_32">
</g>
<g id="Calque_33">
</g>
<g id="Calque_34">
</g>
<g id="Calque_14">
</g>
<g id="Calque_15">
</g>
<g id="Calque_16">
</g>
</svg>
