<?xml version="1.0" encoding="utf-8"?>
<!-- Generator: Adobe Illustrator 16.0.3, SVG Export Plug-In . SVG Version: 6.00 Build 0)  -->
<!DOCTYPE svg PUBLIC "-//W3C//DTD SVG 1.1//EN" "http://www.w3.org/Graphics/SVG/1.1/DTD/svg11.dtd">
<svg version="1.1" xmlns="http://www.w3.org/2000/svg" xmlns:xlink="http://www.w3.org/1999/xlink" x="0px" y="0px" width="20px"
	 height="20px" viewBox="0 0 20 20" enable-background="new 0 0 20 20" xml:space="preserve">
<g id="Calque_1">
</g>
<g id="Calque_2">
</g>
<g id="Calque_3">
</g>
<g id="Calque_4">
</g>
<g id="Calque_5">
</g>
<g id="Calque_6">
</g>
<g id="Calque_7">
</g>
<g id="Calque_8">
</g>
<g id="Calque_9">
</g>
<g id="Calque_10">
</g>
<g id="Calque_11">
</g>
<g id="Calque_12">
</g>
<g id="Calque_13">
</g>
<g id="Calque_17">
</g>
<g id="Calque_18">
</g>
<g id="Calque_23">
</g>
<g id="Calque_20">
</g>
<g id="Calque_21">
</g>
<g id="Calque_22">
</g>
<g id="Calque_24">
</g>
<g id="Calque_25">
</g>
<g id="Calque_26">
</g>
<g id="Calque_27">
</g>
<g id="Calque_28">
</g>
<g id="Calque_29">
</g>
<g id="Calque_30">
</g>
<g id="Calque_31">
</g>
<g id="Calque_32">
</g>
<g id="Calque_33">
</g>
<g id="Calque_34">
	<path d="M17,9h-1.596c-0.143-0.773-0.445-1.49-0.876-2.113l1.13-1.13c0.707-0.707-0.707-2.121-1.414-1.414l-1.129,1.13
		C12.49,5.041,11.773,4.738,11,4.596V3c0-1-2-1-2,0v1.596C8.228,4.738,7.511,5.041,6.887,5.471L5.758,4.343
		C5.051,3.636,3.637,5.051,4.344,5.758l1.128,1.128C5.041,7.51,4.738,8.227,4.596,9H3c-1,0-1,2,0,2h1.596
		c0.143,0.773,0.445,1.49,0.876,2.114l-1.128,1.128c-0.707,0.707,0.707,2.121,1.414,1.414l1.128-1.128
		C7.51,14.959,8.227,15.262,9,15.404V17c0,1,2,1,2,0v-1.596c0.773-0.143,1.49-0.445,2.114-0.876l1.129,1.128
		c0.707,0.707,2.122-0.707,1.415-1.414l-1.129-1.129c0.43-0.624,0.732-1.341,0.875-2.113H17C18,11,18,9,17,9z M6.5,10
		c0-1.93,1.57-3.5,3.5-3.5s3.5,1.57,3.5,3.5s-1.57,3.5-3.5,3.5S6.5,11.93,6.5,10z"/>
</g>
<g id="Calque_14">
</g>
<g id="Calque_15">
</g>
<g id="Calque_16">
</g>
</svg>
