<?xml version="1.0" encoding="utf-8"?>
<!-- Generator: Adobe Illustrator 16.0.3, SVG Export Plug-In . SVG Version: 6.00 Build 0)  -->
<!DOCTYPE svg PUBLIC "-//W3C//DTD SVG 1.1//EN" "http://www.w3.org/Graphics/SVG/1.1/DTD/svg11.dtd">
<svg version="1.1" xmlns="http://www.w3.org/2000/svg" xmlns:xlink="http://www.w3.org/1999/xlink" x="0px" y="0px" width="20px"
	 height="20px" viewBox="0 0 20 20" enable-background="new 0 0 20 20" xml:space="preserve">
<g id="Calque_1">
</g>
<g id="Calque_2">
	<path d="M10,20C4.486,20,0,15.514,0,10S4.486,0,10,0s10,4.486,10,10S15.514,20,10,20z M10,1c-4.962,0-9,4.038-9,9s4.038,9,9,9
		s9-4.038,9-9S14.962,1,10,1z"/>
	<path d="M10,16c-1.603,0-3.109-0.624-4.243-1.757c-2.339-2.339-2.339-6.146,0-8.485C6.891,4.624,8.398,4,10,4
		c1.602,0,3.109,0.624,4.242,1.757c2.339,2.339,2.339,6.146,0,8.485C13.109,15.376,11.603,16,10,16z M10,5
		C8.665,5,7.41,5.52,6.465,6.464c-1.95,1.95-1.95,5.122,0,7.071C7.41,14.48,8.665,15,10,15c1.335,0,2.59-0.52,3.535-1.464
		c1.95-1.95,1.95-5.122,0-7.071C12.591,5.52,11.335,5,10,5z"/>
	<path d="M14.182,12.933c-1.41,0-3.36-1.021-4.727-2.388C8.659,9.75,7.922,8.602,7.482,7.475c-0.526-1.348-0.51-2.396,0.044-2.95
		l0.707,0.707C8.036,5.43,8.015,6.088,8.414,7.112C8.8,8.101,9.47,9.146,10.162,9.838c1.772,1.771,4.089,2.445,4.605,1.929
		l0.707,0.707C15.157,12.791,14.707,12.933,14.182,12.933z"/>
	<path d="M14.582,11.54c-0.355,0-0.755-0.068-1.185-0.206c-1.006-0.322-2.034-0.974-2.896-1.835
		C9.246,8.244,8.435,6.651,8.437,5.441c0-0.521,0.156-0.95,0.449-1.243l0.706,0.709c-0.1,0.099-0.155,0.289-0.155,0.535
		c-0.001,0.785,0.547,2.125,1.771,3.35c0.74,0.74,1.649,1.32,2.494,1.59c0.738,0.236,1.239,0.18,1.392,0.026l0.707,0.707
		C15.519,11.397,15.097,11.54,14.582,11.54z"/>
	<path d="M12.31,15.191c-1.419,0-3.356-0.958-4.95-2.551c-2.092-2.091-3.104-4.731-2.306-6.012c0.085-0.137,0.084-0.137,0.274-0.393
		L6.132,6.83C5.975,7.043,5.974,7.043,5.903,7.157C5.484,7.829,6.104,9.97,8.067,11.933c1.959,1.96,4.151,2.558,4.861,2.123
		c0.084-0.052,0.083-0.053,0.213-0.165l0.652,0.758c-0.206,0.177-0.207,0.176-0.343,0.259C13.137,15.1,12.749,15.191,12.31,15.191z"
		/>
	<path stroke="#FFFFFF" stroke-miterlimit="10" d="M15.183,11.815"/>
	<path stroke="#FFFFFF" stroke-miterlimit="10" d="M8.237,4.796"/>
</g>
<g id="Calque_3">
</g>
<g id="Calque_4">
</g>
<g id="Calque_5">
</g>
<g id="Calque_6">
</g>
<g id="Calque_7">
</g>
<g id="Calque_8">
</g>
<g id="Calque_9">
</g>
<g id="Calque_10">
</g>
<g id="Calque_11">
</g>
<g id="Calque_12">
</g>
<g id="Calque_13">
</g>
<g id="Calque_17">
</g>
<g id="Calque_18">
</g>
<g id="Calque_19">
</g>
<g id="Calque_20">
</g>
<g id="Calque_21">
</g>
<g id="Calque_22">
</g>
<g id="Calque_14">
</g>
<g id="Calque_15">
</g>
<g id="Calque_16">
</g>
</svg>
