<?xml version="1.0" encoding="utf-8"?>
<!-- Generator: Adobe Illustrator 16.0.3, SVG Export Plug-In . SVG Version: 6.00 Build 0)  -->
<!DOCTYPE svg PUBLIC "-//W3C//DTD SVG 1.1//EN" "http://www.w3.org/Graphics/SVG/1.1/DTD/svg11.dtd">
<svg version="1.1" xmlns="http://www.w3.org/2000/svg" xmlns:xlink="http://www.w3.org/1999/xlink" x="0px" y="0px" width="20px"
	 height="20px" viewBox="0 0 20 20" enable-background="new 0 0 20 20" xml:space="preserve">
<g id="Calque_1">
</g>
<g id="Calque_2">
</g>
<g id="Calque_3">
</g>
<g id="Calque_4">
</g>
<g id="Calque_5">
</g>
<g id="Calque_6">
</g>
<g id="Calque_7">
</g>
<g id="Calque_8">
</g>
<g id="Calque_9">
</g>
<g id="Calque_10">
</g>
<g id="Calque_11">
</g>
<g id="Calque_12">
</g>
<g id="Calque_13">
</g>
<g id="Calque_17">
</g>
<g id="Calque_18">
	<path d="M10,0C4.477,0,0,4.477,0,10s4.477,10,10,10s10-4.477,10-10S15.523,0,10,0z M18,11v1h-3v3h-3v3h-1v-3H9v3H8v-3H5v-3H2v-1h3
		V9H2V8h3V5h3V2h1v3h2V2h1v3h3v3h3v1h-3v2H18z"/>
	<path d="M13,13H7V7h6V13z M8,12h4V8H8V12z"/>
</g>
<g id="Calque_19">
</g>
<g id="Calque_20">
</g>
<g id="Calque_21">
</g>
<g id="Calque_22">
</g>
<g id="Calque_14">
</g>
<g id="Calque_15">
</g>
<g id="Calque_16">
</g>
</svg>
